<svg width="45" height="44" viewBox="0 0 45 44" fill="none" xmlns="http://www.w3.org/2000/svg">
<rect x="0.333252" width="44" height="44" rx="12" fill="#D14C8C"/>
<path d="M25.7917 15.125H29.5417M29.5417 15.125H33.2917M29.5417 15.125V18.875M29.5417 15.125V11.375" stroke="white" stroke-width="1.875" stroke-linecap="round"/>
<path d="M10.7917 15.125C10.7917 12.768 10.7917 11.5895 11.524 10.8572C12.2562 10.125 13.4347 10.125 15.7917 10.125C18.1488 10.125 19.3273 10.125 20.0595 10.8572C20.7917 11.5895 20.7917 12.768 20.7917 15.125C20.7917 17.482 20.7917 18.6605 20.0595 19.3928C19.3273 20.125 18.1488 20.125 15.7917 20.125C13.4347 20.125 12.2562 20.125 11.524 19.3928C10.7917 18.6605 10.7917 17.482 10.7917 15.125Z" stroke="white" stroke-width="1.875"/>
<path d="M24.5417 28.875C24.5417 26.518 24.5417 25.3395 25.274 24.6072C26.0062 23.875 27.1847 23.875 29.5417 23.875C31.8988 23.875 33.0773 23.875 33.8095 24.6072C34.5417 25.3395 34.5417 26.518 34.5417 28.875C34.5417 31.232 34.5417 32.4105 33.8095 33.1428C33.0773 33.875 31.8988 33.875 29.5417 33.875C27.1847 33.875 26.0062 33.875 25.274 33.1428C24.5417 32.4105 24.5417 31.232 24.5417 28.875Z" stroke="white" stroke-width="1.875"/>
<path d="M10.7917 28.875C10.7917 26.518 10.7917 25.3395 11.524 24.6072C12.2562 23.875 13.4347 23.875 15.7917 23.875C18.1488 23.875 19.3273 23.875 20.0595 24.6072C20.7917 25.3395 20.7917 26.518 20.7917 28.875C20.7917 31.232 20.7917 32.4105 20.0595 33.1428C19.3273 33.875 18.1488 33.875 15.7917 33.875C13.4347 33.875 12.2562 33.875 11.524 33.1428C10.7917 32.4105 10.7917 31.232 10.7917 28.875Z" stroke="white" stroke-width="1.875"/>
</svg>
