<svg width="18" height="18" viewBox="0 0 18 18" fill="none" xmlns="http://www.w3.org/2000/svg">
<path d="M15.6373 9.00006C15.6354 9.14864 15.5755 9.29058 15.4704 9.39566C15.3653 9.50073 15.2234 9.56061 15.0748 9.56256H8.9548V12.0001C8.96066 12.0894 8.93828 12.1784 8.89084 12.2544C8.84339 12.3304 8.77328 12.3895 8.69039 12.4235C8.60751 12.4575 8.51604 12.4646 8.42891 12.4438C8.34178 12.423 8.26339 12.3753 8.2048 12.3076L5.2048 9.30756C5.12602 9.22758 5.08186 9.11982 5.08186 9.00756C5.08186 8.89529 5.12602 8.78753 5.2048 8.70756L8.2048 5.70756C8.26261 5.64104 8.33957 5.59401 8.42514 5.57291C8.5107 5.55182 8.6007 5.55768 8.68281 5.5897C8.76491 5.62172 8.83511 5.67834 8.8838 5.75179C8.9325 5.82525 8.95729 5.91196 8.9548 6.00006V8.42256H15.0748C15.1497 8.42353 15.2236 8.43925 15.2924 8.4688C15.3612 8.49835 15.4234 8.54117 15.4757 8.59479C15.5279 8.64842 15.5691 8.71181 15.5968 8.78135C15.6245 8.85088 15.6383 8.9252 15.6373 9.00006ZM2.9248 3.63006C2.77562 3.63006 2.63255 3.68932 2.52706 3.79481C2.42157 3.9003 2.3623 4.04337 2.3623 4.19256V13.8076C2.3623 13.9567 2.42157 14.0998 2.52706 14.2053C2.63255 14.3108 2.77562 14.3701 2.9248 14.3701C3.07399 14.3701 3.21706 14.3108 3.32255 14.2053C3.42804 14.0998 3.4873 13.9567 3.4873 13.8076V4.19256C3.48831 4.11841 3.47445 4.04481 3.44654 3.97611C3.41863 3.90741 3.37724 3.845 3.3248 3.79256C3.27237 3.74013 3.20995 3.69873 3.14125 3.67082C3.07255 3.64291 2.99895 3.62905 2.9248 3.63006Z" fill="#99A1B7"/>
</svg>
