<svg width="16" height="16" viewBox="0 0 16 16" fill="none" xmlns="http://www.w3.org/2000/svg">
<path d="M10.0897 4.80779V7.43454H1.90239C1.75138 7.43454 1.60656 7.49452 1.49978 7.6013C1.393 7.70808 1.33301 7.85291 1.33301 8.00392C1.33301 8.15493 1.393 8.29975 1.49978 8.40653C1.60656 8.51331 1.75138 8.5733 1.90239 8.5733H10.0897V11.1925C10.0888 11.2641 10.1096 11.3343 10.1492 11.394C10.1888 11.4537 10.2455 11.5001 10.3118 11.5271C10.3782 11.5541 10.4511 11.5606 10.5212 11.5456C10.5912 11.5306 10.6551 11.4948 10.7046 11.443L14.5598 8.25444C14.5935 8.22124 14.6203 8.18165 14.6386 8.13799C14.6569 8.09433 14.6663 8.04746 14.6663 8.00012C14.6663 7.95278 14.6569 7.90591 14.6386 7.86225C14.6203 7.81859 14.5935 7.779 14.5598 7.7458L10.7046 4.55726C10.6551 4.50543 10.5912 4.46969 10.5212 4.45469C10.4511 4.43969 10.3782 4.44612 10.3118 4.47315C10.2455 4.50018 10.1888 4.54655 10.1492 4.60624C10.1096 4.66592 10.0888 4.73615 10.0897 4.80779Z" fill="#4B5675"/>
</svg>
