<svg width="16" height="16" viewBox="0 0 16 16" fill="none" xmlns="http://www.w3.org/2000/svg">
<path d="M5.90968 11.1922V8.56546H14.097C14.248 8.56546 14.3928 8.50548 14.4996 8.3987C14.6064 8.29192 14.6663 8.14709 14.6663 7.99608C14.6663 7.84507 14.6064 7.70025 14.4996 7.59347C14.3928 7.48669 14.248 7.4267 14.097 7.4267H5.90968V4.80755C5.91053 4.73591 5.88979 4.66568 5.85016 4.606C5.81054 4.54631 5.75387 4.49993 5.68752 4.4729C5.62117 4.44587 5.54823 4.43944 5.47818 4.45444C5.40812 4.46945 5.34421 4.50519 5.29475 4.55702L1.43955 7.74555C1.40581 7.77876 1.37901 7.81835 1.36072 7.86201C1.34243 7.90567 1.33301 7.95254 1.33301 7.99988C1.33301 8.04722 1.34243 8.09408 1.36072 8.13775C1.37901 8.18141 1.40581 8.221 1.43955 8.2542L5.29475 11.4427C5.34421 11.4946 5.40812 11.5303 5.47818 11.5453C5.54823 11.5603 5.62117 11.5539 5.68752 11.5269C5.75387 11.4998 5.81054 11.4534 5.85016 11.3938C5.88979 11.3341 5.91053 11.2638 5.90968 11.1922Z" fill="#C4CADA"/>
</svg>
