<svg width="24" height="24" viewBox="0 0 24 24" fill="none" xmlns="http://www.w3.org/2000/svg">
<path d="M17.8995 4.56747C18.3229 4.14422 19.0094 4.14414 19.4327 4.56747C19.856 4.9908 19.8559 5.67729 19.4327 6.10067L13.5333 12.0001L19.4327 17.8995C19.8559 18.3229 19.856 19.0094 19.4327 19.4327C19.0094 19.856 18.3229 19.8559 17.8995 19.4327L12.0001 13.5333L6.10067 19.4327C5.67729 19.8559 4.9908 19.856 4.56747 19.4327C4.14414 19.0094 4.14422 18.3229 4.56747 17.8995L10.4669 12.0001L4.56747 6.10067C4.14422 5.67729 4.14414 4.9908 4.56747 4.56747C4.9908 4.14414 5.67729 4.14422 6.10067 4.56747L12.0001 10.4669L17.8995 4.56747Z" fill="#071437"/>
</svg>
