<svg width="20" height="20" viewBox="0 0 20 20" fill="none" xmlns="http://www.w3.org/2000/svg">
<path opacity="0.1" d="M7.35055 9.39591H3.21083C2.66469 9.38507 2.14458 9.16048 1.76221 8.77037C1.37984 8.38026 1.16571 7.85575 1.16582 7.3095V3.16979C1.17451 2.6222 1.39816 2.09998 1.7885 1.71583C2.17884 1.33169 2.70457 1.11642 3.25223 1.11649H7.39194C7.94529 1.11649 8.47598 1.33631 8.86726 1.72759C9.25854 2.11887 9.47836 2.64955 9.47836 3.20291V7.34262C9.47405 7.61733 9.41553 7.88848 9.30615 8.14052C9.19678 8.39255 9.0387 8.62051 8.84099 8.81129C8.64329 9.00207 8.40985 9.15192 8.15408 9.25225C7.8983 9.35258 7.62524 9.4014 7.35055 9.39591ZM16.8388 9.39591H12.6991C12.1457 9.39591 11.615 9.1761 11.2237 8.78482C10.8325 8.39354 10.6126 7.86285 10.6126 7.3095V3.16979C10.6126 2.61644 10.8325 2.08575 11.2237 1.69447C11.615 1.30319 12.1457 1.08337 12.6991 1.08337H16.8388C17.3921 1.08337 17.9228 1.30319 18.3141 1.69447C18.7054 2.08575 18.9252 2.61644 18.9252 3.16979V7.3095C18.9253 7.85575 18.7112 8.38026 18.3288 8.77037C17.9464 9.16048 17.4263 9.38507 16.8802 9.39591H16.8388ZM16.7891 18.9172H12.7736C12.2202 18.9172 11.6895 18.6974 11.2982 18.3062C10.907 17.9149 10.6872 17.3842 10.6872 16.8308V12.6911C10.6872 12.1378 10.907 11.6071 11.2982 11.2158C11.6895 10.8245 12.2202 10.6047 12.7736 10.6047H16.8719C17.4252 10.6047 17.9559 10.8245 18.3472 11.2158C18.7385 11.6071 18.9583 12.1378 18.9583 12.6911V16.8308C18.9583 17.3842 18.7385 17.9149 18.3472 18.3062C17.9559 18.6974 17.4252 18.9172 16.8719 18.9172H16.7891ZM7.26775 18.9172H3.12804C2.57469 18.9172 2.044 18.6974 1.65272 18.3062C1.26144 17.9149 1.04163 17.3842 1.04163 16.8308V12.6911C1.04163 12.1378 1.26144 11.6071 1.65272 11.2158C2.044 10.8245 2.57469 10.6047 3.12804 10.6047H7.26775C7.8211 10.6047 8.35179 10.8245 8.74307 11.2158C9.13435 11.6071 9.35417 12.1378 9.35417 12.6911V16.8308C9.35459 17.3701 9.14617 17.8886 8.77263 18.2776C8.39908 18.6666 7.88942 18.8958 7.35055 18.9172H7.26775Z" fill="#99A1B7"/>
<path d="M7.35055 9.39591H3.21083C2.66469 9.38507 2.14458 9.16048 1.76221 8.77037C1.37984 8.38026 1.16571 7.85575 1.16582 7.3095V3.16979C1.17451 2.6222 1.39816 2.09998 1.7885 1.71583C2.17884 1.33169 2.70457 1.11642 3.25223 1.11649H7.39194C7.94529 1.11649 8.47598 1.33631 8.86726 1.72759C9.25854 2.11887 9.47836 2.64955 9.47836 3.20291V7.34262C9.47405 7.61733 9.41553 7.88848 9.30615 8.14052C9.19678 8.39255 9.0387 8.62051 8.84099 8.81129C8.64329 9.00207 8.40985 9.15192 8.15408 9.25225C7.8983 9.35258 7.62524 9.4014 7.35055 9.39591ZM3.21083 2.3584C2.99125 2.3584 2.78066 2.44563 2.62539 2.6009C2.47012 2.75617 2.38289 2.96676 2.38289 3.18635V7.32606C2.38289 7.54564 2.47012 7.75623 2.62539 7.9115C2.78066 8.06677 2.99125 8.154 3.21083 8.154H7.35055C7.57013 8.154 7.78072 8.06677 7.93599 7.9115C8.09126 7.75623 8.17849 7.54564 8.17849 7.32606V3.18635C8.17849 2.96676 8.09126 2.75617 7.93599 2.6009C7.78072 2.44563 7.57013 2.3584 7.35055 2.3584H3.21083ZM16.8388 9.39591H12.6991C12.1457 9.39591 11.615 9.1761 11.2237 8.78482C10.8325 8.39354 10.6126 7.86285 10.6126 7.3095V3.16979C10.6126 2.61644 10.8325 2.08575 11.2237 1.69447C11.615 1.30319 12.1457 1.08337 12.6991 1.08337H16.8388C17.3921 1.08337 17.9228 1.30319 18.3141 1.69447C18.7054 2.08575 18.9252 2.61644 18.9252 3.16979V7.3095C18.9253 7.85575 18.7112 8.38026 18.3288 8.77037C17.9464 9.16048 17.4263 9.38507 16.8802 9.39591H16.8388ZM12.6991 2.3584C12.4795 2.3584 12.2689 2.44563 12.1136 2.6009C11.9583 2.75617 11.8711 2.96676 11.8711 3.18635V7.32606C11.8711 7.54564 11.9583 7.75623 12.1136 7.9115C12.2689 8.06677 12.4795 8.154 12.6991 8.154H16.8388C17.0583 8.154 17.2689 8.06677 17.4242 7.9115C17.5795 7.75623 17.6667 7.54564 17.6667 7.32606V3.18635C17.6667 2.96676 17.5795 2.75617 17.4242 2.6009C17.2689 2.44563 17.0583 2.3584 16.8388 2.3584H12.6991ZM16.7891 18.9172H12.7736C12.2202 18.9172 11.6895 18.6974 11.2982 18.3062C10.907 17.9149 10.6872 17.3842 10.6872 16.8308V12.6911C10.6872 12.1378 10.907 11.6071 11.2982 11.2158C11.6895 10.8245 12.2202 10.6047 12.7736 10.6047H16.8719C17.4252 10.6047 17.9559 10.8245 18.3472 11.2158C18.7385 11.6071 18.9583 12.1378 18.9583 12.6911V16.8308C18.9583 17.3842 18.7385 17.9149 18.3472 18.3062C17.9559 18.6974 17.4252 18.9172 16.8719 18.9172H16.7891ZM12.6908 11.8797C12.4712 11.8797 12.2606 11.967 12.1053 12.1222C11.9501 12.2775 11.8628 12.4881 11.8628 12.7077V16.8474C11.8628 17.067 11.9501 17.2776 12.1053 17.4328C12.2606 17.5881 12.4712 17.6753 12.6908 17.6753H16.7891C17.0087 17.6753 17.2193 17.5881 17.3745 17.4328C17.5298 17.2776 17.617 17.067 17.617 16.8474V12.7077C17.617 12.4881 17.5298 12.2775 17.3745 12.1222C17.2193 11.967 17.0087 11.8797 16.7891 11.8797H12.6908ZM7.26775 18.9172H3.12804C2.57469 18.9172 2.044 18.6974 1.65272 18.3062C1.26144 17.9149 1.04163 17.3842 1.04163 16.8308V12.6911C1.04163 12.1378 1.26144 11.6071 1.65272 11.2158C2.044 10.8245 2.57469 10.6047 3.12804 10.6047H7.26775C7.8211 10.6047 8.35179 10.8245 8.74307 11.2158C9.13435 11.6071 9.35417 12.1378 9.35417 12.6911V16.8308C9.35459 17.3701 9.14617 17.8886 8.77263 18.2776C8.39908 18.6666 7.88942 18.8958 7.35055 18.9172H7.26775ZM3.12804 11.8797C2.90846 11.8797 2.69787 11.967 2.5426 12.1222C2.38733 12.2775 2.3001 12.4881 2.3001 12.7077V16.8474C2.3001 17.067 2.38733 17.2776 2.5426 17.4328C2.69787 17.5881 2.90846 17.6753 3.12804 17.6753H7.26775C7.48734 17.6753 7.69793 17.5881 7.85319 17.4328C8.00846 17.2776 8.09569 17.067 8.09569 16.8474V12.7077C8.09569 12.4881 8.00846 12.2775 7.85319 12.1222C7.69793 11.967 7.48734 11.8797 7.26775 11.8797H3.12804Z" fill="#99A1B7"/>
</svg>
