<svg width="20" height="20" viewBox="0 0 20 20" fill="none" xmlns="http://www.w3.org/2000/svg">
<circle cx="10" cy="16.6667" r="1.66667" stroke="#99A1B7" stroke-width="1.2"/>
<circle cx="4.99996" cy="4.99996" r="0.833333" stroke="#99A1B7" stroke-width="1.2"/>
<path d="M9.40004 15C9.40004 15.3313 9.66867 15.6 10 15.6C10.3314 15.6 10.6 15.3313 10.6 15H9.40004ZM10 1.66663L10.4993 1.33381C10.388 1.16689 10.2007 1.06663 10 1.06663C9.79943 1.06663 9.61209 1.16689 9.50081 1.33381L10 1.66663ZM11.1675 4.49945C11.3513 4.77516 11.7238 4.84967 11.9995 4.66586C12.2752 4.48204 12.3497 4.10952 12.1659 3.83381L11.1675 4.49945ZM7.83414 3.83381C7.65033 4.10952 7.72484 4.48204 8.00055 4.66586C8.27627 4.84967 8.64879 4.77516 8.8326 4.49945L7.83414 3.83381ZM10 1.66663L9.50081 1.99945L11.1675 4.49945L11.6667 4.16663L12.1659 3.83381L10.4993 1.33381L10 1.66663ZM10 1.66663L9.50081 1.33381L7.83414 3.83381L8.33337 4.16663L8.8326 4.49945L10.4993 1.99945L10 1.66663ZM10 15H10.6V12.5H10H9.40004V15H10ZM10 12.5H10.6V1.66663H10H9.40004V12.5H10Z" fill="#99A1B7"/>
<path d="M5 5.83337V7.96544C5 8.68283 5.45905 9.31972 6.13962 9.54658L8.86038 10.4535C9.54095 10.6804 10 11.3173 10 12.0346V12.5" stroke="#99A1B7" stroke-width="1.2" stroke-linecap="round"/>
<path d="M15 8.33337V10.4654C15 11.1828 14.5409 11.8197 13.8604 12.0466L11.1396 12.9535C10.4591 13.1804 10 13.8173 10 14.5346V15" stroke="#99A1B7" stroke-width="1.2" stroke-linecap="round"/>
<path d="M14.1666 7.49996C14.1666 7.10712 14.1666 6.9107 14.2887 6.78866C14.4107 6.66663 14.6071 6.66663 15 6.66663C15.3928 6.66663 15.5892 6.66663 15.7113 6.78866C15.8333 6.9107 15.8333 7.10712 15.8333 7.49996C15.8333 7.8928 15.8333 8.08921 15.7113 8.21125C15.5892 8.33329 15.3928 8.33329 15 8.33329C14.6071 8.33329 14.4107 8.33329 14.2887 8.21125C14.1666 8.08921 14.1666 7.8928 14.1666 7.49996Z" stroke="#99A1B7" stroke-width="1.2"/>
</svg>
