<svg width="20" height="20" viewBox="0 0 20 20" fill="none" xmlns="http://www.w3.org/2000/svg">
<path d="M6.66663 13.3333C6.66663 15.6903 6.66663 16.8688 7.39886 17.6011C8.13109 18.3333 9.3096 18.3333 11.6666 18.3333H12.5C14.857 18.3333 16.0355 18.3333 16.7677 17.6011C17.5 16.8688 17.5 15.6903 17.5 13.3333V6.66663C17.5 4.3096 17.5 3.13109 16.7677 2.39886C16.0355 1.66663 14.857 1.66663 12.5 1.66663H11.6666C9.3096 1.66663 8.13109 1.66663 7.39886 2.39886C6.66663 3.13109 6.66663 4.3096 6.66663 6.66663" stroke="#111827" stroke-width="1.25" stroke-linecap="round"/>
<path d="M6.66667 16.25C4.70248 16.25 3.72039 16.25 3.11019 15.6398C2.5 15.0296 2.5 14.0475 2.5 12.0833V7.91667C2.5 5.95248 2.5 4.97039 3.11019 4.36019C3.72039 3.75 4.70248 3.75 6.66667 3.75" stroke="#111827" stroke-width="1.25"/>
<path d="M5 9.99996L12.5 9.99996M12.5 9.99996L10.4167 12.0833M12.5 9.99996L10.4167 7.91663" stroke="#111827" stroke-width="1.25" stroke-linecap="round" stroke-linejoin="round"/>
</svg>
