<svg width="40" height="40" viewBox="0 0 40 40" fill="none" xmlns="http://www.w3.org/2000/svg">
<path d="M26.7491 17.7096V17.005C26.7491 13.1362 23.7274 10 20 10C16.2726 10 13.2509 13.1362 13.2509 17.005V17.7096C13.2509 18.5552 13.0097 19.3818 12.5578 20.0854L11.4504 21.8095C10.4388 23.3843 11.211 25.5249 12.9704 26.0229C17.5727 27.3257 22.4273 27.3257 27.0296 26.0229C28.789 25.5249 29.5612 23.3843 28.5496 21.8095L27.4422 20.0854C26.9903 19.3818 26.7491 18.5552 26.7491 17.7096Z" stroke="#99A1B7" stroke-width="1.5"/>
<path d="M15.5 27C16.155 28.7478 17.9225 30 20 30C22.0775 30 23.845 28.7478 24.5 27" stroke="#99A1B7" stroke-width="1.5" stroke-linecap="round"/>
<circle cx="27" cy="13" r="4.5" fill="url(#paint0_linear_78_3182)" stroke="white"/>
<defs>
<linearGradient id="paint0_linear_78_3182" x1="23" y1="9" x2="32.3665" y2="14.789" gradientUnits="userSpaceOnUse">
<stop stop-color="#00AEEF"/>
<stop offset="1" stop-color="#007FC4"/>
</linearGradient>
</defs>
</svg>
