<svg width="44" height="44" viewBox="0 0 44 44" fill="none" xmlns="http://www.w3.org/2000/svg">
<rect width="44" height="44" rx="12" fill="#4B9C19"/>
<path d="M9.5 22C9.5 16.1074 9.5 13.1612 11.3306 11.3306C13.1612 9.5 16.1074 9.5 22 9.5C27.8926 9.5 30.8388 9.5 32.6694 11.3306C34.5 13.1612 34.5 16.1074 34.5 22C34.5 27.8926 34.5 30.8388 32.6694 32.6694C30.8388 34.5 27.8926 34.5 22 34.5C16.1074 34.5 13.1612 34.5 11.3306 32.6694C9.5 30.8388 9.5 27.8926 9.5 22Z" stroke="white" stroke-width="1.8"/>
<path d="M15.75 24.5L18.6161 21.6339C19.1043 21.1457 19.8957 21.1457 20.3839 21.6339L22.3661 23.6161C22.8543 24.1043 23.6457 24.1043 24.1339 23.6161L28.25 19.5M28.25 19.5V22.625M28.25 19.5H25.125" stroke="white" stroke-width="1.8" stroke-linecap="round" stroke-linejoin="round"/>
</svg>
