<svg width="20" height="20" viewBox="0 0 20 20" fill="none" xmlns="http://www.w3.org/2000/svg">
<path d="M2.5 18.3334H17.5" stroke="#99A1B7" stroke-width="1.2" stroke-linecap="round" stroke-linejoin="round"/>
<path d="M2.5 9.16667C2.5 8.38099 2.5 7.98816 2.74408 7.74408C2.98816 7.5 3.38099 7.5 4.16667 7.5C4.95234 7.5 5.34518 7.5 5.58926 7.74408C5.83333 7.98816 5.83333 8.38099 5.83333 9.16667V14.1667C5.83333 14.9523 5.83333 15.3452 5.58926 15.5893C5.34518 15.8333 4.95234 15.8333 4.16667 15.8333C3.38099 15.8333 2.98816 15.8333 2.74408 15.5893C2.5 15.3452 2.5 14.9523 2.5 14.1667V9.16667Z" stroke="#99A1B7" stroke-width="1.2"/>
<path d="M8.33337 5.83329C8.33337 5.04762 8.33337 4.65478 8.57745 4.4107C8.82153 4.16663 9.21437 4.16663 10 4.16663C10.7857 4.16663 11.1786 4.16663 11.4226 4.4107C11.6667 4.65478 11.6667 5.04762 11.6667 5.83329V14.1666C11.6667 14.9523 11.6667 15.3451 11.4226 15.5892C11.1786 15.8333 10.7857 15.8333 10 15.8333C9.21437 15.8333 8.82153 15.8333 8.57745 15.5892C8.33337 15.3451 8.33337 14.9523 8.33337 14.1666V5.83329Z" stroke="#99A1B7" stroke-width="1.2"/>
<path d="M14.1666 3.33329C14.1666 2.54762 14.1666 2.15478 14.4107 1.9107C14.6548 1.66663 15.0476 1.66663 15.8333 1.66663C16.619 1.66663 17.0118 1.66663 17.2559 1.9107C17.5 2.15478 17.5 2.54762 17.5 3.33329V14.1666C17.5 14.9523 17.5 15.3451 17.2559 15.5892C17.0118 15.8333 16.619 15.8333 15.8333 15.8333C15.0476 15.8333 14.6548 15.8333 14.4107 15.5892C14.1666 15.3451 14.1666 14.9523 14.1666 14.1666V3.33329Z" stroke="#99A1B7" stroke-width="1.2"/>
</svg>
