<svg width="16" height="16" viewBox="0 0 16 16" fill="none" xmlns="http://www.w3.org/2000/svg">
<path opacity="0.1" d="M13.1999 7.43331C13.1999 10.655 10.5882 13.2666 7.36654 13.2666C4.14488 13.2666 1.5332 10.655 1.5332 7.43331C1.5332 4.21165 4.14488 1.59998 7.36654 1.59998C10.5882 1.59998 13.1999 4.21165 13.1999 7.43331Z" fill="#99A1B7"/>
<path d="M7.37939 1.37952C10.693 1.37952 13.3792 4.06598 13.3794 7.37952C13.3794 8.83218 12.8625 10.1637 12.0034 11.2018L14.4468 13.6461C14.6681 13.8674 14.6681 14.2256 14.4468 14.4469C14.2255 14.6682 13.8673 14.6682 13.646 14.4469L11.2017 12.0035C10.1636 12.8626 8.83204 13.3795 7.37939 13.3795C4.06588 13.3793 1.37939 10.6931 1.37939 7.37952C1.3796 4.06613 4.06601 1.37975 7.37939 1.37952ZM7.37939 2.49182C4.68016 2.49205 2.49191 4.68028 2.4917 7.37952C2.4917 10.0789 4.68004 12.268 7.37939 12.2682C10.0789 12.2682 12.2681 10.0791 12.2681 7.37952C12.2679 4.68014 10.0788 2.49182 7.37939 2.49182Z" fill="#99A1B7"/>
</svg>
