<svg width="20" height="20" viewBox="0 0 20 20" fill="none" xmlns="http://www.w3.org/2000/svg">
<path opacity="0.1" d="M13.041 1.40108C13.3323 1.43895 13.6134 1.53571 13.8662 1.68526L15.2471 2.48213C15.7525 2.77454 16.1215 3.25594 16.2725 3.82002C16.4233 4.38385 16.3444 4.98437 16.0528 5.48994L15.6885 6.13448C15.8792 6.40356 16.0486 6.68722 16.1963 6.98213H16.959C17.5426 6.98884 18.1003 7.22553 18.5098 7.64131C18.9193 8.05716 19.1477 8.61825 19.1455 9.20186V10.8376C19.1389 11.4183 18.9044 11.9735 18.4922 12.3825C18.08 12.7916 17.5231 13.0219 16.9424 13.0241H16.1885C16.0496 13.2989 15.8932 13.5653 15.7217 13.821L16.1035 14.4899C16.245 14.7425 16.3352 15.0208 16.3692 15.3083C16.4031 15.5957 16.3805 15.8872 16.3018 16.1657C16.2231 16.4443 16.0895 16.7042 15.9102 16.9314C15.7308 17.1586 15.5086 17.3487 15.2559 17.4899L13.8662 18.2868C13.614 18.4294 13.3356 18.5198 13.0479 18.5544C12.7602 18.5889 12.4683 18.5668 12.1895 18.488C11.9106 18.4092 11.65 18.2754 11.4229 18.0954C11.1959 17.9155 11.0066 17.6925 10.8662 17.4392L10.4932 16.8034C10.1774 16.8287 9.85973 16.8288 9.54396 16.8034L9.15431 17.4646C8.96289 17.8064 8.6838 18.0917 8.34572 18.2897C8.00764 18.4878 7.62228 18.5917 7.23048 18.5915C6.8441 18.5883 6.46466 18.4859 6.12892 18.2946L4.74806 17.4899C4.49672 17.3461 4.27667 17.1534 4.1006 16.9235C3.92457 16.6937 3.796 16.4312 3.72267 16.1511C3.64514 15.8681 3.6243 15.5719 3.66213 15.281C3.69999 14.9901 3.79613 14.7094 3.94338 14.4558L4.31545 13.821C4.13258 13.5501 3.96861 13.2666 3.82423 12.9733H3.06154C2.77221 12.9722 2.48565 12.9142 2.21877 12.8024C1.95193 12.6907 1.70965 12.5273 1.50588 12.322C1.30208 12.1166 1.14096 11.8729 1.03127 11.6052C0.92158 11.3375 0.8661 11.0507 0.867204 10.7614V9.14229C0.86972 8.8597 0.927656 8.58015 1.0381 8.32002C1.14861 8.05986 1.3091 7.82376 1.51076 7.62569C1.71417 7.42224 1.95647 7.26115 2.22267 7.15205C2.48879 7.04305 2.77396 6.98775 3.06154 6.98994H3.80763C3.95303 6.69567 4.12035 6.41282 4.30763 6.14326L3.93459 5.47334C3.79085 5.22131 3.69827 4.94299 3.6631 4.65498C3.62799 4.36708 3.65066 4.07473 3.72951 3.79561C3.80839 3.51649 3.94246 3.25597 4.12306 3.02901C4.3037 2.80201 4.52792 2.6129 4.78224 2.47334L6.17189 1.67647C6.42426 1.5352 6.70206 1.44483 6.98927 1.41084C7.27664 1.37689 7.56821 1.40059 7.8467 1.4792C8.12526 1.55789 8.38608 1.69048 8.6133 1.86983C8.84053 2.0492 9.03065 2.27142 9.17189 2.52412L9.53615 3.15987C9.83525 3.14293 10.1355 3.14292 10.4346 3.15987L10.832 2.49092C10.977 2.24046 11.1707 2.02037 11.4004 1.84444C11.6299 1.66876 11.8917 1.54013 12.1709 1.46553C12.4535 1.38562 12.7498 1.36328 13.041 1.40108ZM11.2754 6.92061C10.6664 6.66836 9.99618 6.60255 9.34963 6.73116C8.70311 6.8598 8.10872 7.17714 7.64259 7.64326C7.17669 8.10932 6.8591 8.703 6.73048 9.34932C6.60188 9.99584 6.6687 10.6661 6.92091 11.2751C7.17321 11.8842 7.60029 12.4049 8.14845 12.7712C8.69659 13.1374 9.34078 13.3337 10 13.3337C10.8841 13.3337 11.7323 12.9823 12.3574 12.3571C12.9825 11.732 13.333 10.8837 13.333 9.99971C13.333 9.34053 13.1377 8.69624 12.7715 8.14815C12.4052 7.59998 11.8845 7.1729 11.2754 6.92061Z" fill="#99A1B7"/>
<path d="M7.21647 18.6345C6.8288 18.6313 6.4484 18.5289 6.11154 18.337L4.72614 17.5296C4.47404 17.3853 4.25324 17.1923 4.07666 16.9617C3.90007 16.7311 3.77124 16.4676 3.6977 16.1867C3.61994 15.9028 3.59943 15.6063 3.63737 15.3145C3.67531 15.0227 3.77094 14.7413 3.91869 14.4868L4.29266 13.8493C4.10922 13.5775 3.94452 13.2935 3.7997 12.9994H3.03475C2.74454 12.9982 2.4574 12.94 2.18972 12.8279C1.92203 12.7158 1.67904 12.5521 1.47463 12.3461C1.27021 12.1401 1.10837 11.8959 0.998349 11.6273C0.888325 11.3588 0.832272 11.0712 0.83339 10.781V9.15761C0.835853 8.87402 0.894168 8.59369 1.005 8.33265C1.11584 8.0716 1.27702 7.83495 1.47935 7.63621C1.68338 7.43212 1.92597 7.27066 2.193 7.16122C2.46003 7.05178 2.74617 6.99655 3.03475 6.99875H3.7827C3.92859 6.70342 4.0962 6.41932 4.28416 6.14881L3.91019 5.47735C3.76602 5.22457 3.67361 4.94562 3.63835 4.65676C3.60308 4.36791 3.62565 4.07492 3.70476 3.79487C3.78387 3.51483 3.91793 3.25333 4.09912 3.02562C4.28031 2.79791 4.50502 2.60854 4.76013 2.46855L6.15404 1.6696C6.40738 1.52773 6.6862 1.43716 6.97455 1.4031C7.26291 1.36903 7.55515 1.39212 7.83458 1.47105C8.11401 1.54999 8.37514 1.68322 8.60305 1.86312C8.83096 2.04303 9.02118 2.26609 9.16284 2.51955L9.52832 3.15701C9.82839 3.14001 10.1292 3.14001 10.4293 3.15701L10.8287 2.48555C10.9741 2.23434 11.1675 2.01422 11.3979 1.83776C11.6283 1.6613 11.8912 1.53196 12.1716 1.45712C12.4552 1.37693 12.7521 1.35517 13.0443 1.39316C13.3365 1.43114 13.6179 1.52808 13.8715 1.6781L15.2569 2.47705C15.7639 2.77033 16.1337 3.25285 16.2851 3.81861C16.4365 4.38436 16.3571 4.98708 16.0644 5.49435L15.6989 6.14031C15.8903 6.41025 16.0607 6.69439 16.2089 6.99025H16.9738C17.5592 6.99698 18.1182 7.23483 18.529 7.65196C18.9397 8.06909 19.169 8.63169 19.1667 9.21711V10.8575C19.16 11.4399 18.9245 11.9964 18.511 12.4067C18.0976 12.817 17.5393 13.0482 16.9568 13.0504H16.2004C16.0611 13.326 15.905 13.5928 15.7329 13.8493L16.1154 14.5208C16.2573 14.7741 16.3478 15.0529 16.3819 15.3413C16.416 15.6296 16.3929 15.9219 16.3139 16.2013C16.235 16.4807 16.1018 16.7419 15.9219 16.9698C15.742 17.1977 15.5189 17.3879 15.2654 17.5296L13.8715 18.3285C13.6185 18.4715 13.3396 18.563 13.051 18.5977C12.7624 18.6323 12.4698 18.6095 12.19 18.5305C11.9103 18.4515 11.649 18.3178 11.4212 18.1373C11.1934 17.9567 11.0036 17.7329 10.8627 17.4786L10.4888 16.8411C10.172 16.8665 9.85362 16.8665 9.53682 16.8411L9.14585 17.5041C8.95385 17.8471 8.67384 18.1326 8.33469 18.3313C7.99555 18.53 7.60954 18.6347 7.21647 18.6345ZM3.05175 8.30767C2.80513 8.30712 2.56775 8.40147 2.38879 8.57115C2.30209 8.65834 2.23343 8.76178 2.18676 8.87554C2.14009 8.9893 2.11632 9.11115 2.11681 9.23411V10.832C2.13173 11.0666 2.23449 11.287 2.4046 11.4492C2.57472 11.6114 2.7997 11.7036 3.03475 11.7074H4.20767C4.33355 11.7054 4.45706 11.7417 4.56181 11.8116C4.66656 11.8814 4.74758 11.9814 4.79413 12.0984C4.99226 12.5656 5.24933 13.0054 5.55908 13.4073C5.63501 13.509 5.68017 13.6303 5.68921 13.7568C5.69825 13.8834 5.67079 14.0099 5.61008 14.1213L5.02362 15.1157C4.90436 15.3337 4.87101 15.5884 4.93012 15.8297C4.99453 16.0667 5.15044 16.2685 5.36359 16.3906L6.749 17.1981C6.85538 17.2614 6.97357 17.3024 7.09633 17.3185C7.2191 17.3346 7.34385 17.3254 7.46296 17.2916C7.70114 17.2251 7.90487 17.07 8.03242 16.8581L8.61888 15.8382C8.68354 15.7299 8.77811 15.6426 8.89119 15.5869C9.00428 15.5311 9.13108 15.5091 9.25634 15.5237C9.74751 15.5832 10.2441 15.5832 10.7352 15.5237C10.86 15.5037 10.9879 15.5223 11.1018 15.577C11.2157 15.6317 11.3102 15.7198 11.3727 15.8297L11.9507 16.8326C12.0736 17.0478 12.2769 17.2054 12.516 17.2707C12.7551 17.3361 13.0103 17.3038 13.2256 17.1811L14.611 16.3821C14.7187 16.3233 14.8134 16.2433 14.8893 16.1469C14.9653 16.0504 15.021 15.9397 15.053 15.8212C15.1121 15.5799 15.0787 15.3252 14.9595 15.1072L14.373 14.0873C14.3046 13.9824 14.2682 13.8598 14.2682 13.7346C14.2682 13.6093 14.3046 13.4868 14.373 13.3818C14.672 12.9957 14.9205 12.573 15.1125 12.1239C15.1543 12.0032 15.234 11.8991 15.3396 11.8272C15.4452 11.7552 15.5712 11.7192 15.6989 11.7244H16.8548C17.0991 11.7341 17.3376 11.6495 17.5212 11.4881C17.7047 11.3267 17.8191 11.1009 17.8408 10.8575V9.24261C17.8413 9.11965 17.8175 8.9978 17.7708 8.88404C17.7241 8.77028 17.6555 8.66684 17.5688 8.57965C17.4842 8.49128 17.3826 8.42089 17.2702 8.3727C17.1577 8.3245 17.0367 8.29949 16.9143 8.29917H15.7499C15.6238 8.29709 15.5011 8.25816 15.3969 8.18717C15.2927 8.11619 15.2115 8.01625 15.1635 7.8997C14.9651 7.43611 14.705 7.00152 14.39 6.60778C14.3134 6.50619 14.2685 6.38424 14.2609 6.25722C14.2534 6.13021 14.2835 6.00379 14.3475 5.89383L14.9255 4.89089C15.0482 4.67559 15.0805 4.42037 15.0151 4.1813C14.9498 3.94224 14.7922 3.7389 14.577 3.61598L13.1916 2.78303C12.9911 2.66701 12.7534 2.63349 12.5286 2.68954C12.2896 2.75446 12.0854 2.90995 11.9592 3.12301L11.3727 4.14294C11.3097 4.25273 11.2154 4.34127 11.1019 4.39728C10.9883 4.45328 10.8607 4.47422 10.7352 4.45742C10.2583 4.39796 9.77579 4.39796 9.29884 4.45742C9.1746 4.47361 9.04836 4.45232 8.9363 4.39629C8.82424 4.34026 8.73147 4.25204 8.66988 4.14294L8.05792 3.13151C7.93341 2.918 7.73009 2.76188 7.49168 2.69671C7.25326 2.63155 6.9988 2.66254 6.783 2.78303L5.38909 3.56498C5.17413 3.68807 5.01621 3.89077 4.94942 4.12931C4.88263 4.36784 4.91233 4.62307 5.03212 4.8399L5.61008 5.86833C5.68098 5.9811 5.71424 6.11347 5.70508 6.24636C5.69591 6.37926 5.64479 6.50581 5.55908 6.60778C5.25179 6.99909 4.9948 7.42741 4.79413 7.8827C4.7466 7.99898 4.66534 8.09837 4.56081 8.16805C4.45629 8.23774 4.33329 8.27452 4.20767 8.27367H3.05175V8.30767ZM9.97879 13.4073C9.30638 13.4073 8.64907 13.2079 8.08998 12.8344C7.53089 12.4608 7.09513 11.9298 6.83781 11.3086C6.58049 10.6874 6.51316 10.0038 6.64434 9.34429C6.77552 8.6848 7.09932 8.07902 7.57479 7.60355C8.05025 7.12808 8.65604 6.80429 9.31553 6.67311C9.97502 6.54192 10.6586 6.60925 11.2798 6.86657C11.9011 7.12389 12.432 7.55965 12.8056 8.11874C13.1792 8.67783 13.3786 9.33514 13.3786 10.0076C13.3786 10.9092 13.0204 11.774 12.3828 12.4116C11.7452 13.0491 10.8805 13.4073 9.97879 13.4073ZM9.97879 7.8827C9.55853 7.8827 9.14771 8.00732 8.79828 8.2408C8.44885 8.47428 8.1765 8.80614 8.01568 9.19441C7.85485 9.58267 7.81277 10.0099 7.89476 10.4221C7.97675 10.8343 8.17912 11.2129 8.47629 11.5101C8.77346 11.8072 9.15207 12.0096 9.56425 12.0916C9.97643 12.1736 10.4037 12.1315 10.7919 11.9707C11.1802 11.8098 11.5121 11.5375 11.7455 11.1881C11.979 10.8386 12.1037 10.4278 12.1037 10.0076C12.1037 9.44401 11.8798 8.90354 11.4813 8.50505C11.0828 8.10657 10.5423 7.8827 9.97879 7.8827Z" fill="#99A1B7"/>
</svg>
