<svg width="44" height="44" viewBox="0 0 44 44" fill="none" xmlns="http://www.w3.org/2000/svg">
<rect width="44" height="44" rx="12" fill="#9873D0"/>
<circle cx="22" cy="32" r="2.5" stroke="white" stroke-width="1.8"/>
<circle cx="14.5" cy="14.5" r="1.25" stroke="white" stroke-width="1.8"/>
<path d="M21.1 29.5C21.1 29.9971 21.5029 30.4 22 30.4C22.4971 30.4 22.9 29.9971 22.9 29.5H21.1ZM22 9.5L22.7488 9.00077C22.5819 8.75039 22.3009 8.6 22 8.6C21.6991 8.6 21.4181 8.75039 21.2512 9.00077L22 9.5ZM23.7512 13.7492C24.0269 14.1628 24.5857 14.2746 24.9992 13.9988C25.4128 13.7231 25.5246 13.1643 25.2488 12.7508L23.7512 13.7492ZM18.7512 12.7508C18.4754 13.1643 18.5872 13.7231 19.0008 13.9988C19.4143 14.2746 19.9731 14.1628 20.2488 13.7492L18.7512 12.7508ZM22 9.5L21.2512 9.99923L23.7512 13.7492L24.5 13.25L25.2488 12.7508L22.7488 9.00077L22 9.5ZM22 9.5L21.2512 9.00077L18.7512 12.7508L19.5 13.25L20.2488 13.7492L22.7488 9.99923L22 9.5ZM22 29.5H22.9V25.75H22H21.1V29.5H22ZM22 25.75H22.9V9.5H22H21.1V25.75H22Z" fill="white"/>
<path d="M14.5 15.75V18.9481C14.5 20.0242 15.1886 20.9795 16.2094 21.3198L20.2906 22.6802C21.3114 23.0205 22 23.9758 22 25.0519V25.75" stroke="white" stroke-width="1.8" stroke-linecap="round"/>
<path d="M29.5 19.5V22.6981C29.5 23.7742 28.8114 24.7295 27.7906 25.0698L23.7094 26.4302C22.6886 26.7705 22 27.7258 22 28.8019V29.5" stroke="white" stroke-width="1.8" stroke-linecap="round"/>
<path d="M28.25 18.25C28.25 17.6607 28.25 17.3661 28.4331 17.1831C28.6161 17 28.9107 17 29.5 17C30.0893 17 30.3839 17 30.5669 17.1831C30.75 17.3661 30.75 17.6607 30.75 18.25C30.75 18.8393 30.75 19.1339 30.5669 19.3169C30.3839 19.5 30.0893 19.5 29.5 19.5C28.9107 19.5 28.6161 19.5 28.4331 19.3169C28.25 19.1339 28.25 18.8393 28.25 18.25Z" stroke="white" stroke-width="1.8"/>
</svg>
