<svg width="45" height="44" viewBox="0 0 45 44" fill="none" xmlns="http://www.w3.org/2000/svg">
<rect x="0.333252" width="44" height="44" rx="12" fill="#006AE6"/>
<path d="M10.75 34.5H33.25" stroke="white" stroke-width="1.8" stroke-linecap="round" stroke-linejoin="round"/>
<path d="M10.75 20.75C10.75 19.5715 10.75 18.9822 11.1161 18.6161C11.4822 18.25 12.0715 18.25 13.25 18.25C14.4285 18.25 15.0178 18.25 15.3839 18.6161C15.75 18.9822 15.75 19.5715 15.75 20.75V28.25C15.75 29.4285 15.75 30.0178 15.3839 30.3839C15.0178 30.75 14.4285 30.75 13.25 30.75C12.0715 30.75 11.4822 30.75 11.1161 30.3839C10.75 30.0178 10.75 29.4285 10.75 28.25V20.75Z" stroke="white" stroke-width="1.8"/>
<path d="M19.5 15.75C19.5 14.5715 19.5 13.9822 19.8661 13.6161C20.2322 13.25 20.8215 13.25 22 13.25C23.1785 13.25 23.7678 13.25 24.1339 13.6161C24.5 13.9822 24.5 14.5715 24.5 15.75V28.25C24.5 29.4285 24.5 30.0178 24.1339 30.3839C23.7678 30.75 23.1785 30.75 22 30.75C20.8215 30.75 20.2322 30.75 19.8661 30.3839C19.5 30.0178 19.5 29.4285 19.5 28.25V15.75Z" stroke="white" stroke-width="1.8"/>
<path d="M28.25 12C28.25 10.8215 28.25 10.2322 28.6161 9.86612C28.9822 9.5 29.5715 9.5 30.75 9.5C31.9285 9.5 32.5178 9.5 32.8839 9.86612C33.25 10.2322 33.25 10.8215 33.25 12V28.25C33.25 29.4285 33.25 30.0178 32.8839 30.3839C32.5178 30.75 31.9285 30.75 30.75 30.75C29.5715 30.75 28.9822 30.75 28.6161 30.3839C28.25 30.0178 28.25 29.4285 28.25 28.25V12Z" stroke="white" stroke-width="1.8"/>
</svg>
